<?xml version="1.0" encoding="UTF-8"?>
<svg id="Layer_1" data-name="Layer 1" xmlns="http://www.w3.org/2000/svg" viewBox="0 0 151.28 100">
  <defs>
    <style>
      .cls-1 {
        fill: #0079c0;
      }

      .cls-2 {
        fill: #fff;
      }

      .cls-3 {
        fill: #ff0072;
      }

      .cls-4 {
        fill: #2ab77e;
      }

      .cls-5 {
        fill: #f15a24;
      }
    </style>
  </defs>
  <path class="cls-2" d="M27.62,42.04h28.4v53.02h-11.36v-41.66h-17.04c-3.66,0-6.78,1.48-9.37,4.43-2.59,2.95-3.88,6.53-3.88,10.72s1.29,7.76,3.88,10.72c2.59,2.95,5.71,4.43,9.37,4.43h13.25v11.36h-13.25c-6.79,0-12.59-2.59-17.4-7.76-4.81-5.18-7.21-11.42-7.21-18.74s2.4-13.57,7.21-18.74,10.61-7.76,17.4-7.76Z"/>
  <path class="cls-2" d="M77.79,68.47l-17.99-26.47h13.25l11.32,16.7,11.4-16.66,13.25-.08-17.99,26.55,17.99,26.51-13.25.04-11.36-16.78-11.36,16.78h-13.25l17.99-26.58Z"/>
  <path class="cls-5" d="M112.82,42.04h11.36v53.02h-11.36v-53.02Z"/>
  <path class="cls-1" d="M118.27,9.45l.91,2.46c1.83,4.95,5.74,8.86,10.69,10.69l2.46.91-2.46.91c-4.95,1.83-8.86,5.74-10.69,10.69l-.91,2.46-.91-2.46c-1.83-4.95-5.74-8.86-10.69-10.69l-2.46-.91,2.46-.91c4.95-1.83,8.86-5.74,10.69-10.69l.91-2.46Z"/>
  <path class="cls-3" d="M137.07,24.37l.57,1.53c1.14,3.08,3.56,5.5,6.64,6.64l1.53.57-1.53.57c-3.08,1.14-5.5,3.56-6.64,6.64l-.57,1.53-.57-1.53c-1.14-3.08-3.56-5.5-6.64-6.64l-1.53-.57,1.53-.57c3.08-1.14,5.5-3.56,6.64-6.64l.57-1.53Z"/>
  <path class="cls-4" d="M132.34,2.72l.44,1.18c.88,2.37,2.74,4.24,5.11,5.11l1.18.44-1.18.44c-2.37.88-4.24,2.74-5.11,5.11l-.44,1.18-.44-1.18c-.88-2.37-2.74-4.24-5.11-5.11l-1.18-.44,1.18-.44c2.37-.88,4.24-2.74,5.11-5.11l.44-1.18Z"/>
</svg>