<svg width="233" height="348" viewBox="0 0 233 348" fill="none" xmlns="http://www.w3.org/2000/svg">
    <path d="M13.5304 336C8.69704 330.667 -0.269631 314.6 2.53037 293C6.03037 266 33.0312 252 51.0312 264.5C69.0312 277 74.0312 302 81.0312 316C88.0312 330 112.031 351.5 141.531 345C171.031 338.5 176.031 324.5 166.031 300.5C156.031 276.5 118.031 273.5 97.5312 266.5C77.0312 259.5 51.5312 248 56.5312 219C61.5312 190 90.0312 195 102.031 209C114.031 223 148.531 232.5 161.531 215C174.531 197.5 163.031 180 150.531 181C138.031 182 129.531 193.5 135.031 205.5C140.531 217.5 170.531 229 191.031 202.5C211.531 176 195.031 152.5 180.031 134.5C165.031 116.5 146.031 90 160.531 50.5C175.031 11 213.031 2.5 232.031 2" stroke="#FFC9C9" stroke-width="2"></path>
</svg>