<svg width="859" height="279" fill="none" xmlns="http://www.w3.org/2000/svg"><mask id="a" style="mask-type:alpha" maskUnits="userSpaceOnUse" x="0" y="0" width="859" height="279"><path fill="#144FCC" d="M.8 0h858v279H.8z"/></mask><g opacity=".1" mask="url(#a)"><path d="M698 229v-43.6c0-19.4-9-30.8-20-30.8-5.5 0-10.5 4-14.1 10.3a35.1 35.1 0 0 0-5.9 20.5V196c0 22.2-.9 32.5-6.5 36.1-1.8 1.2-4 1.7-7 1.7h3.8a37 37 0 0 0 17.7-4.5l6.5 4.5 11.4-5.4 6.1 5.4 8.3-4.7" stroke="#AFCFFF" stroke-width="2" stroke-linecap="round" stroke-linejoin="round"/><path d="m775.5 175.8 23.1.3 3.2 82.7c0 8.2-3.2 19.2-11.4 19.2h-78.9 1.2a7 7 0 0 0 2-.7c.2 0 .2-.1.3-.2.7-.3 1.4-.8 2-1.3 0 0 0 0 0 0m0 0 1-.8c0-.1 0-.2.2-.3l.4-.5.3-.3.3-.5.2-.2.5-.7v0l.3-.5.4-.6c0-.1 0-.2.2-.3v-.2l.1-.2.8-1.5.7-1.8.7-2 .6-2.1.4-2.3.3-2.2c.2-1.6.3-3.3.3-5l-3.2-78.9 54 .9c-.1-1.7 0-3.5-.2-5.2-.3-1.5-.8-3-1.5-4.4a28 28 0 0 0-5.4-7.7c-2.1-2.2-5-4-8-4h-37.8s-40 .4-40.3 0h-5.5.9c6 .4 11.4 4.1 15.2 10.6a42.8 42.8 0 0 1 5 17c.3 2.3.4 4.7.4 7.2v64.5c0 6.7 1.5 12.7 3.9 17.1 2.4 4.4 5.7 7 9.3 7h1.2a7 7 0 0 0 2.1-.7h.2c.8-.4 1.4-.9 2-1.4Zm0 0h.1l.9-.9.2-.2.4-.5.3-.3.4-.5.1-.2.5-.7v0l.4-.5.3-.6.2-.4s0 0 0 0l.2-.3a19.4 19.4 0 0 0 1.5-3.4 37.1 37.1 0 0 0 2-8.6m9.3-63.7h53.4m-53.4 15.5h53.4M733.8 228h31.4" stroke="#AFCFFF" stroke-width="2" stroke-linecap="round" stroke-linejoin="round"/><path d="M667 160.2v-81l32.7-26v101.2m31.3-.2.1-101h-31M667 89l32.6-24.2m-32.4 34.5 32.4-22.6m120.1 137V116" stroke="#AFCFFF" stroke-width="2" stroke-linecap="round" stroke-linejoin="round"/><path d="M731 142.2h17.5V53h39.2v122" stroke="#AFCFFF" stroke-width="2" stroke-linecap="round" stroke-linejoin="round"/><path d="M748.5 60.6h38.8M748.5 68h38.8" stroke="#BED3FF" stroke-width="2" stroke-miterlimit="10"/><path d="m787.7 53 18.9 14.9v37.3l13 10.4v18.6l22 8.5v22h17.2v59M731 142.2h17.5V53h39.2v122M748.5 60.6h38.8M748.5 68h38.8" stroke="#AFCFFF" stroke-width="2" stroke-linecap="round" stroke-linejoin="round"/><path d="m787.7 53 18.9 14.9v37.3l13 10.4v18.6l22 8.5v22h17.2v59m-17.3 57.4V149M12.2 223.4h29.5m-29.5 13.4h38.1m-38.1 22.7h82.3m-13.7-24.8c2 1.7 4.7 2 7.4 2a10 10 0 0 0 0-19.9 9 9 0 0 0-6.9 2.4M48.8 206l51.5-51.4m-36.8 7.2V78l41.9-28.3v110M139 80h17v26.8h18v55.9" stroke="#AFCFFF" stroke-width="2" stroke-linecap="round" stroke-linejoin="round"/><path d="m140 288.8-1-224.9-.1-14.6-33.4.4M63.8 88.9 105.2 61m-41.4 39 41.4-26.8m35 103.7 15.2-14.3 29.9.3 15 15.4m-44.3 110V106m29.5 56.9v128" stroke="#AFCFFF" stroke-width="2" stroke-linecap="round" stroke-linejoin="round"/><path d="M74.8 236.7a10 10 0 0 1-10.8-10 10 10 0 0 1 10.8-9.9c13.1.5 13.1 19.4 0 19.9Z" stroke="#AFCFFF" stroke-width="2" stroke-linejoin="round"/><path d="M105.2 50.1 64 78.5l.1 9.4 41.3-27.4-.2-10.4ZM86 140.4 20.4 206l13.9-.3 58-58-6.3-7.3Z" fill="#D4E4FE"/><path d="m33.9 206 59-59M20 205.5 85.5 140l53 53-31.9 31.7" stroke="#AFCFFF" stroke-width="2" stroke-linecap="round" stroke-linejoin="round"/><path d="M106.3 206H.8v74h105.5v-74Z" stroke="#AFCFFF" stroke-width="2" stroke-linecap="round" stroke-linejoin="round"/><mask id="b" style="mask-type:luminance" maskUnits="userSpaceOnUse" x="347" y="46" width="298" height="297"><path d="M644.5 46H347.2v296.1h297.3V46Z" fill="#fff"/></mask><g mask="url(#b)"><path d="M596.4 187.3c-4.3 5.3-18.2-5.8-22.5-6.4-5.5-.6-11.6 1-15.2 5.8-4.2 5.8-2.9 13.9-2.6 20.7 1 9.3-2 24.2 10.7 26.1 5.5.7 11-1.6 16.4-.6 5.5.6 7.8 5.1 8.7 10.3 1.7 7 1.7 14.2 2.6 21.3l.6 9.2" stroke="#AFCFFF" stroke-width="2" stroke-linecap="round" stroke-linejoin="round"/><path d="M570.8 146.4s-.8 5.4-5.2 5.8c-2.3.2-4.5-.3-6.8 1.6-3 2.5-5.3 17.5-1.3 20 2.5 1.5 11.4.6 13.6-1.3 1.9-1.6 1.9-5.1 3.8-7.4 1.3-2 6.2-2.7 8.4-3.3l-6.6-8.9-5.9-6.5" fill="#D4E4FE"/><path d="M570.8 146.4s-.8 5.4-5.2 5.8c-2.3.2-4.5-.3-6.8 1.6-3 2.5-5.3 17.5-1.3 20 2.5 1.5 11.4.6 13.6-1.3 1.9-1.6 1.9-5.1 3.8-7.4 1.3-2 6.2-2.7 8.4-3.3l-6.6-8.9-5.9-6.5M401 134.2c1.1-.8 4.3-3.9 5.7-3.8h.2c.3 0 .9 1 1.2 1.3l1.8.9c6.4 2 15-2.3 20.4-5.4l2-1.1c6.5-4 14-3.2 9.7 1-12.2 12.3-12 19.6-3.6 24.8a33.3 33.3 0 0 0 20.7 4.8c17.6-1 4.6-34.3 29.3-22.7 9 4.2 20 10.8 6.4 19-9.9 5.9-21 12-26.3 22.7-4 7.8-1.5 18.6 1.6 26.2 2.5 6.4-2.1 11-3.6 4.5-4.7-20.7-26.3-14.6-23.8 4.7 2 15 17.1 19.7 24.6 29.8a2 2 0 0 1-.1 2.6 6.4 6.4 0 0 1-6.7 1.7c-6.5-2.2-13.9-3-19.8-3.7-10.8-1.3-22.6-2.4-32.3-7.8a42.2 42.2 0 0 1-20.4-26.4 180 180 0 0 1-4.5-32.7c-.2-2.2 0-4.6-.9-6.7-1-2.8-3.4-5.2-5.3-7.3m-15.6 59.8a70.4 70.4 0 0 1 4.8-28" stroke="#AFCFFF" stroke-width="2" stroke-linecap="round" stroke-linejoin="round"/><path d="M479.7 355.9a124.7 124.7 0 1 0 0-249.5 124.7 124.7 0 0 0 0 249.5ZM363.5 109.7c54.8-57.2 143.3-50 192.6-25.7" stroke="#AFCFFF" stroke-width="2" stroke-linecap="round" stroke-linejoin="round"/><path d="M437.4 65c43-10 92.4-5.4 124 11.3" stroke="#AFCFFF" stroke-width="2" stroke-linecap="round" stroke-linejoin="round"/><path d="m590.9 98.3 7.3 4.8 4.7-28.3-1.3-.8-10.7 24.3Z" fill="#D4E4FE"/><path d="m567.8 86.4-8.5 7.6 2 1.7h0c2.6-1.3 4.9-3 7.3-4.3 5.7 4.2 11.2 8 18 13.3a356.1 356.1 0 0 1-20 17.5l2 2c6.9-3.8 17.5-9.7 24.6-14.3a83.5 83.5 0 0 0 17.7 10.3c4.7 1.5 6.3-.9 3.3-4.5-4.4-5.2-10-9.2-15.7-13.3 2-8.2 4-20.2 5.2-28l-2.5-1.2c-2 6-4.8 13.1-9.8 24.7-7.2-4.7-12.7-8.5-18.5-12.5.4-2.7 1.2-5.5 1.6-8.2V77l-2.3-1.3-4.4 10.6m22.2 86.4h29.3v119.2" stroke="#AFCFFF" stroke-width="2" stroke-linecap="round" stroke-linejoin="round"/><path d="M611.6 172v-21h32.2v144.2M611.7 157h32m-32 7.3h32" stroke="#AFCFFF" stroke-width="2" stroke-linecap="round" stroke-linejoin="round"/></g><path d="M200.5 163.8H364m-64.5 74.1 1.2 19.3 5.3-7 8.4-.5-15-11.8Zm-37.8-47.3s.8 41 .4 40.7H225v-50.1h27.5l9.3 9.4h0Zm-30.7.4 22.5-.5m-22.7 9.5 17.5-.4m27.5-15.9h66.8m-66.8 16.1h39" stroke="#AFCFFF" stroke-width="2" stroke-linecap="round" stroke-linejoin="round"/><path d="M364.2 146.1H201v17h163.3v-17Z" fill="#D4E4FE"/><path d="M212.3 156.4c.7 0 1.3-.6 1.3-1.3 0-.8-.6-1.4-1.3-1.4-.8 0-1.4.6-1.4 1.4 0 .7.6 1.3 1.4 1.3Zm7.3.2c.8 0 1.4-.7 1.4-1.4a1.4 1.4 0 1 0-2.6 0c0 .7.5 1.4 1.2 1.4Zm7.4 0c.8 0 1.3-.7 1.3-1.4 0-.8-.5-1.4-1.3-1.4-.7 0-1.3.6-1.3 1.4 0 .7.6 1.4 1.3 1.4Z" stroke="#fff" stroke-width="2" stroke-linecap="round" stroke-linejoin="round"/><path d="M643.2 151.6h-31v5h31v-5Zm56-86.8-31.6 23v-8.2l31.5-25v10.2Z" fill="#D4E4FE"/><path d="M364.6 279.8H200.3v-134h164.3v37" stroke="#AFCFFF" stroke-width="2" stroke-linecap="round" stroke-linejoin="round"/></g></svg>